# ProBuilder 5.0.6
# https://unity3d.com/unity/features/worldbuilding/probuilder
# 13/1/2023 3:46:39 μ.μ.

mtllib ./coin.mtl
o coin

g Cylinder
v -2.404407 1.192093E-07 1.182595
v -2.404407 0.5218623 1.182595
v -2.312465 1.192093E-07 1.639426
v -2.312465 0.5218623 1.639426
v -2.050636 1.192093E-07 2.026709
v -2.050636 0.5218623 2.026709
v -1.658781 1.192093E-07 2.285482
v -1.658781 0.5218623 2.285482
v -1.196558 1.192093E-07 2.376352
v -1.196558 0.5218623 2.376352
v -0.7343336 1.192093E-07 2.285482
v -0.7343336 0.5218623 2.285482
v -0.3424791 1.192093E-07 2.026709
v -0.3424791 0.5218623 2.026709
v -0.08065033 1.192093E-07 1.639426
v -0.08065033 0.5218623 1.639426
v 0.01129174 1.192093E-07 1.182595
v 0.01129174 0.5218623 1.182595
v -0.08065033 1.192093E-07 0.7257646
v -0.08065033 0.5218623 0.7257646
v -0.3424791 1.192093E-07 0.3384823
v -0.3424791 0.5218623 0.3384823
v -0.7343335 1.192093E-07 0.07970834
v -0.7343335 0.5218623 0.07970834
v -1.196558 1.192093E-07 -0.01116097
v -1.196558 0.5218623 -0.01116097
v -1.658782 1.192093E-07 0.07970846
v -1.658782 0.5218623 0.07970846
v -2.050636 1.192093E-07 0.338482
v -2.050636 0.5218623 0.338482
v -2.312465 1.192093E-07 0.7257646
v -2.312465 0.5218623 0.7257646
v -2.163486 0.1608669 1.182598
v -1.196559 0.1608669 1.182598
v -2.089882 0.1608669 1.548307
v -2.163486 0.3609957 1.182598
v -1.196559 0.3609957 1.182598
v -2.089883 0.3609956 1.548306
v -1.88028 0.1608668 1.85834
v -1.88028 0.3609956 1.85834
v -1.566586 0.1608668 2.065498
v -1.566586 0.3609957 2.0655
v -1.196559 0.1608668 2.138242
v -1.196559 0.3609957 2.138243
v -0.8265325 0.1608668 2.065498
v -0.8265326 0.3609957 2.0655
v -0.5128379 0.1608668 1.85834
v -0.5128399 0.3609956 1.85834
v -0.3032367 0.1608669 1.548307
v -0.3032348 0.3609956 1.548306
v -0.2296317 0.1608669 1.182598
v -0.2296317 0.3609957 1.182598
v -0.3032359 0.1608669 0.8168877
v -0.303236 0.3609958 0.8168889
v -0.5128398 0.1608669 0.5068544
v -0.5128379 0.3609957 0.5068536
v -0.8265316 0.1608669 0.2996964
v -0.8265336 0.3609957 0.2996956
v -1.196559 0.1608669 0.2269528
v -1.196561 0.3609957 0.226952
v -1.566587 0.1608669 0.2996964
v -1.566585 0.3609956 0.2996956
v -1.88028 0.1608669 0.5068544
v -1.88028 0.3609957 0.5068536
v -2.089882 0.1608669 0.8168877
v -2.089884 0.3609958 0.8168889
v -2.163485 0.4698161 1.182597
v -2.089883 0.4698163 0.8168879
v -2.089883 0.469816 1.548305
v -1.880279 0.4698161 0.5068527
v -1.566584 0.469816 0.2996947
v -1.19656 0.4698161 0.2269511
v -0.8265325 0.4698161 0.2996947
v -0.5128368 0.4698161 0.5068527
v -0.3032349 0.4698163 0.8168879
v -0.2296306 0.4698161 1.182597
v -0.3032337 0.469816 1.548305
v -0.5128387 0.469816 1.858339
v -0.8265315 0.4698163 2.065499
v -1.196558 0.4698161 2.138242
v -1.566585 0.4698163 2.065499
v -1.880279 0.469816 1.858339
v -2.089882 0.05204651 1.548306
v -1.880279 0.05204646 1.858339
v -2.163486 0.05204664 1.182597
v -1.566586 0.05204649 2.065497
v -1.196558 0.05204639 2.138241
v -0.8265318 0.05204649 2.065497
v -0.5128371 0.05204646 1.858339
v -0.3032359 0.05204652 1.548306
v -0.2296309 0.05204665 1.182597
v -0.3032351 0.0520465 0.8168868
v -0.512839 0.05204655 0.5068535
v -0.8265308 0.05204653 0.2996954
v -1.196558 0.05204661 0.2269518
v -1.566586 0.05204652 0.2996954
v -1.880279 0.05204657 0.5068534
v -2.089882 0.0520465 0.8168868

vt 0.6849484 1.192093E-07
vt 0.6849484 0.5218623
vt 1.15094 1.192093E-07
vt 1.15094 0.5218623
vt 0.06299838 1.192093E-07
vt 0.06299838 0.5218623
vt 0.5304831 1.192093E-07
vt 0.5304831 0.5218623
vt -0.5943317 1.192093E-07
vt -0.5943317 0.5218623
vt -0.1247428 1.192093E-07
vt -0.1247428 0.5218623
vt -1.186759 1.192093E-07
vt -1.186759 0.5218623
vt -0.7156873 1.192093E-07
vt -0.7156873 0.5218623
vt -1.632481 1.192093E-07
vt -1.632481 0.5218623
vt -1.16141 1.192093E-07
vt -1.16141 0.5218623
vt -1.872222 1.192093E-07
vt -1.872222 0.5218623
vt -1.402633 1.192093E-07
vt -1.402633 0.5218623
vt -1.870819 1.192093E-07
vt -1.870819 0.5218623
vt -1.403335 1.192093E-07
vt -1.403335 0.5218623
vt -1.623112 1.192093E-07
vt -1.623112 0.5218623
vt -1.15712 1.192093E-07
vt -1.15712 0.5218623
vt -1.161576 1.192093E-07
vt -1.161576 0.5218623
vt -0.6955851 1.192093E-07
vt -0.6955851 0.5218623
vt -0.5560809 1.192093E-07
vt -0.5560809 0.5218623
vt -0.08859622 1.192093E-07
vt -0.08859622 0.5218623
vt 0.0992603 1.192093E-07
vt 0.0992603 0.5218623
vt 0.5688493 1.192093E-07
vt 0.5688493 0.5218623
vt 0.705166 1.192093E-07
vt 0.705166 0.5218623
vt 1.176237 1.192093E-07
vt 1.176237 0.5218623
vt 1.171932 1.192093E-07
vt 1.171932 0.5218623
vt 1.643003 1.192093E-07
vt 1.643003 0.5218623
vt 1.428116 1.192093E-07
vt 1.428116 0.5218623
vt 1.897704 1.192093E-07
vt 1.897704 0.5218623
vt 1.428931 1.192093E-07
vt 1.428931 0.5218623
vt 1.896416 1.192093E-07
vt 1.896416 0.5218623
vt 1.167757 1.192093E-07
vt 1.167757 0.5218623
vt 1.633748 1.192093E-07
vt 1.633748 0.5218623
vt -2.163486 1.182598
vt -1.196559 1.182598
vt -2.089882 1.548307
vt 2.163486 1.182597
vt 1.196559 1.182597
vt 2.089883 1.548306
vt -1.88028 1.85834
vt 1.88028 1.85834
vt -1.566586 2.065498
vt 1.566586 2.0655
vt -1.196559 2.138242
vt 1.196559 2.138243
vt -0.8265325 2.065498
vt 0.8265326 2.0655
vt -0.5128379 1.85834
vt 0.51284 1.85834
vt -0.3032367 1.548307
vt 0.3032349 1.548306
vt -0.2296317 1.182598
vt 0.2296317 1.182597
vt -0.3032359 0.8168877
vt 0.303236 0.8168888
vt -0.5128398 0.5068544
vt 0.5128379 0.5068538
vt -0.8265316 0.2996964
vt 0.8265336 0.2996956
vt -1.196559 0.2269528
vt 1.196561 0.226952
vt -1.566587 0.2996964
vt 1.566585 0.2996956
vt -1.88028 0.5068544
vt 1.88028 0.5068537
vt -2.089882 0.8168877
vt 2.089884 0.8168889
vt 2.460387 1.181428
vt 2.370518 0.7241846
vt 2.213908 1.181429
vt 2.141966 0.8153901
vt 2.370519 1.638873
vt 2.460387 1.18163
vt 2.141966 1.54767
vt 2.213908 1.181631
vt 2.368644 0.7087448
vt 2.111098 0.3186005
vt 2.140328 0.8005414
vt 1.934153 0.4882153
vt 2.09884 0.2842514
vt 1.709888 0.02113704
vt 1.923423 0.4554464
vt 1.612051 0.2448134
vt 1.679657 -0.01817004
vt 1.217859 -0.111181
vt 1.58531 0.2070005
vt 1.215626 0.1325426
vt 1.17305 -0.1330997
vt 0.7112523 -0.04008892
vt 1.175287 0.1106238
vt 0.8056008 0.1850817
vt 0.6655088 -0.03144517
vt 0.2765557 0.2316695
vt 0.7633469 0.1922313
vt 0.4519739 0.4028643
vt 0.2428656 0.2664817
vt -0.01467968 0.6566257
vt 0.4198122 0.4360962
vt 0.2136392 0.7484222
vt -0.03136239 0.7027289
vt -0.1212314 1.159972
vt 0.1971932 0.7939344
vt 0.1252486 1.159973
vt -0.1212326 1.203086
vt -0.03136361 1.660329
vt 0.1252474 1.203087
vt 0.197191 1.569126
vt -0.01467988 1.691217
vt 0.2428654 2.081361
vt 0.213638 1.599423
vt 0.4198138 1.911747
vt 0.2765557 2.094501
vt 0.6655088 2.357616
vt 0.4519757 1.923307
vt 0.7633458 2.133942
vt 0.7112523 2.350824
vt 1.17305 2.443835
vt 0.8055996 2.125656
vt 1.175285 2.200114
vt 1.217859 2.421915
vt 1.679656 2.328904
vt 1.215625 2.178194
vt 1.585311 2.103736
vt 1.709888 2.305033
vt 2.09884 2.041918
vt 1.612052 2.081359
vt 1.923423 1.870724
vt 2.111099 2.029241
vt 2.368644 1.639097
vt 1.934153 1.859627
vt 2.140328 1.547303
vt -2.274633 1.577038
vt -2.017087 1.967182
vt -2.046316 1.485244
vt -1.840142 1.797568
vt -2.350191 1.159971
vt -2.260322 1.617214
vt -2.103712 1.159973
vt -2.031768 1.526012
vt -2.035452 1.948213
vt -1.646499 2.211328
vt -1.860035 1.77702
vt -1.548664 1.987653
vt -1.657252 2.217667
vt -1.195454 2.310678
vt -1.562907 1.992497
vt -1.193221 2.066955
vt -1.195454 2.332598
vt -0.7336566 2.239587
vt -1.19769 2.088876
vt -0.8280042 2.014417
vt -0.7288964 2.263912
vt -0.3399433 2.000797
vt -0.8267337 2.040237
vt -0.5153617 1.829604
vt -0.3368762 2.019302
vt -0.07933092 1.629158
vt -0.513823 1.849688
vt -0.3076509 1.537364
vt -0.07883187 1.638671
vt 0.01103711 1.181427
vt -0.3073885 1.547468
vt -0.2354432 1.18143
vt 0.01103711 1.18163
vt -0.07883184 0.724387
vt -0.2354432 1.181632
vt -0.3073878 0.8155915
vt -0.07933094 0.7186849
vt -0.3368762 0.3285409
vt -0.3076501 0.8104803
vt -0.5138249 0.4981561
vt -0.3399433 0.3253731
vt -0.7288964 0.06225839
vt -0.5153636 0.4965686
vt -0.8267328 0.2859356
vt -0.7336564 0.07114712
vt -1.195454 -0.02186368
vt -0.8280032 0.2963186
vt -1.197689 0.2218606
vt -1.195454 5.573977E-05
vt -1.657252 0.09306666
vt -1.19322 0.2437801
vt -1.562908 0.318238
vt -1.6465 0.1148413
vt -2.035452 0.3779558
vt -1.548665 0.3385185
vt -1.860035 0.5491515
vt -2.017087 0.3806602
vt -2.274633 0.7708045
vt -1.840142 0.5502757
vt -2.046316 0.8626
vt -2.260323 0.7458431
vt -2.350191 1.203086
vt -2.031769 0.8370475
vt -2.103713 1.203088
vt -1.586212 0.4698032
vt -1.21317 0.4698033
vt -1.586213 0.3609827
vt -1.213171 0.3609828
vt -1.105528 0.4698069
vt -0.7324865 0.469807
vt -1.105529 0.3609865
vt -0.7324873 0.3609866
vt -1.847242 0.4698133
vt -1.473001 0.4698131
vt -1.847243 0.3609928
vt -1.473003 0.3609927
vt -1.848332 0.4698173
vt -1.472408 0.4698172
vt -1.848333 0.3609968
vt -1.472409 0.3609968
vt -1.594973 0.4698161
vt -1.217865 0.4698162
vt -1.594974 0.3609957
vt -1.217866 0.3609958
vt -1.130309 0.4698114
vt -0.7531989 0.4698113
vt -1.130309 0.3609909
vt -0.7531998 0.3609909
vt -0.5245611 0.469807
vt -0.1486363 0.4698071
vt -0.5245616 0.3609866
vt -0.1486368 0.3609866
vt 0.1326708 0.4698065
vt 0.5069098 0.4698067
vt 0.132671 0.3609861
vt 0.50691 0.3609862
vt 0.7409984 0.469811
vt 1.114041 0.4698108
vt 0.7409992 0.3609904
vt 1.114041 0.3609904
vt 1.204656 0.4698162
vt 1.577698 0.4698161
vt 1.204658 0.3609958
vt 1.5777 0.3609957
vt 1.452509 0.4698181
vt 1.826748 0.4698181
vt 1.45251 0.3609978
vt 1.826749 0.3609978
vt 1.452017 0.469814
vt 1.82794 0.4698143
vt 1.452018 0.3609936
vt 1.827942 0.3609937
vt 1.209438 0.4698038
vt 1.586547 0.4698036
vt 1.209439 0.3609832
vt 1.586548 0.3609832
vt 0.7616246 0.4697917
vt 1.138734 0.4697918
vt 0.7616255 0.3609712
vt 1.138735 0.3609713
vt 0.1690217 0.4697833
vt 0.544946 0.469783
vt 0.1690221 0.3609628
vt 0.5449464 0.3609627
vt -0.4864099 0.469782
vt -0.1121715 0.469782
vt -0.4864101 0.3609616
vt -0.1121721 0.3609616
vt -0.112178 0.05205614
vt -0.486416 0.05205609
vt -0.1121791 0.1608765
vt -0.4864164 0.1608765
vt -0.7324812 0.05206639
vt -1.105523 0.05206626
vt -0.7324821 0.1608867
vt -1.105524 0.1608866
vt 0.5449568 0.05207711
vt 0.1690336 0.05207714
vt 0.5449568 0.1608975
vt 0.1690337 0.1608975
vt 1.138733 0.05206947
vt 0.7616236 0.05206937
vt 1.138734 0.1608898
vt 0.7616242 0.1608898
vt 1.586548 0.05205968
vt 1.209439 0.05205979
vt 1.586549 0.1608801
vt 1.20944 0.1608801
vt 1.827931 0.05205079
vt 1.452007 0.05205076
vt 1.827932 0.1608711
vt 1.452008 0.1608711
vt 1.826753 0.05204595
vt 1.452516 0.052046
vt 1.826754 0.1608663
vt 1.452517 0.1608664
vt 1.5777 0.05204647
vt 1.204657 0.05204661
vt 1.577701 0.1608668
vt 1.204659 0.1608669
vt 1.114042 0.05205087
vt 0.7409977 0.05205071
vt 1.114043 0.1608711
vt 0.7409985 0.1608711
vt 0.5069037 0.05205432
vt 0.1326652 0.05205437
vt 0.5069041 0.1608747
vt 0.1326656 0.1608747
vt -0.1486337 0.05205469
vt -0.5245553 0.05205467
vt -0.1486339 0.160875
vt -0.5245555 0.160875
vt -0.7531971 0.05205122
vt -1.130307 0.05205131
vt -0.7531977 0.1608716
vt -1.130307 0.1608716
vt -1.217864 0.05204655
vt -1.594975 0.05204646
vt -1.217865 0.1608669
vt -1.594976 0.1608668
vt -1.472408 0.05204412
vt -1.848331 0.05204417
vt -1.47241 0.1608645
vt -1.848332 0.1608645
vt -1.473003 0.05204687
vt -1.847241 0.05204679
vt -1.473004 0.1608672
vt -1.847242 0.1608672
vt -1.213172 0.05203918
vt -1.586215 0.05203933
vt -1.213172 0.1608595
vt -1.586216 0.1608596

vn -1 0 -3.039992E-08
vn -0.922401 0 0.3862337
vn -0.7032628 0 0.7109299
vn -0.3791503 0 0.9253351
vn 0 0 1
vn 0.3791502 0 0.9253352
vn 0.7032628 0 0.7109299
vn 0.922401 0 0.3862336
vn 1 0 -7.599979E-08
vn 0.922401 0 -0.3862336
vn 0.703263 0 -0.7109297
vn 0.3791503 0 -0.9253351
vn -1.214911E-07 0 -1
vn -0.3791502 0 -0.9253352
vn -0.7032629 0 -0.7109299
vn -0.922401 0 -0.3862336
vn -1.541084E-08 -1 -2.413742E-07
vn 0 1 2.444759E-07
vn 0.2109679 0.9765704 0.04245955
vn 0.2109692 0.9765701 -0.04245979
vn 0.1788226 0.9764254 0.120896
vn 0.1194607 0.9762201 0.1808963
vn 0.04194285 0.9760751 0.2133501
vn -0.04194257 0.9760754 0.2133489
vn -0.1194602 0.9762204 0.1808954
vn -0.1788231 0.9764253 0.1208963
vn -0.2109654 0.976571 0.04245905
vn -0.2109676 0.9765705 -0.04245947
vn -0.1788234 0.9764252 -0.1208966
vn -0.1194604 0.9762202 -0.1808959
vn -0.04194307 0.9760748 -0.2133511
vn 0.04194308 0.9760748 -0.2133511
vn 0.1194615 0.9762198 -0.1808974
vn 0.1788241 0.9764251 -0.1208971
vn 0.1788244 -0.9764249 -0.1208973
vn 0.21097 -0.97657 -0.04245995
vn 0.1194616 -0.9762198 -0.1808976
vn 0.04194318 -0.9760747 -0.2133516
vn -0.04194293 -0.976075 -0.2133504
vn -0.1194611 -0.97622 -0.1808969
vn -0.1788237 -0.9764251 -0.1208968
vn -0.2109665 -0.9765707 -0.04245924
vn -0.2109682 -0.9765703 0.04245962
vn -0.1788223 -0.9764255 0.1208958
vn -0.1194602 -0.9762204 0.1808953
vn -0.04194275 -0.9760751 0.2133498
vn 0.04194279 -0.9760752 0.2133497
vn 0.1194612 -0.9762199 0.180897
vn 0.1788242 -0.9764251 0.1208971
vn 0.2109688 -0.9765702 0.04245972
vn 0.9803426 -6.862359E-06 0.1973029
vn 0.9803425 -3.876986E-06 -0.1973035
vn 0.8284392 -2.351839E-06 0.560079
vn 0.5510637 1.879968E-06 0.8344632
vn 0.1928989 6.428595E-06 0.9812187
vn -0.1928978 1.050097E-05 0.9812189
vn -0.5510625 1.281938E-05 0.834464
vn -0.8284419 1.35299E-05 0.5600752
vn -0.9803416 1.166303E-05 0.1973082
vn -0.9803421 8.338991E-06 -0.1973052
vn -0.8284365 3.486189E-06 -0.5600831
vn -0.5510696 -1.578036E-06 -0.8344592
vn -0.1928974 -6.697327E-06 -0.9812189
vn 0.1928973 -1.050097E-05 -0.981219
vn 0.5510685 -1.274608E-05 -0.8344601
vn 0.828438 -1.307616E-05 -0.5600809

usemtl Gold
f 33/65/17 34/66/17 35/67/17
f 35/67/17 34/66/17 39/71/17
f 39/71/17 34/66/17 41/73/17
f 41/73/17 34/66/17 43/75/17
f 43/75/17 34/66/17 45/77/17
f 45/77/17 34/66/17 47/79/17
f 47/79/17 34/66/17 49/81/17
f 49/81/17 34/66/17 51/83/17
f 51/83/17 34/66/17 53/85/17
f 53/85/17 34/66/17 55/87/17
f 55/87/17 34/66/17 57/89/17
f 57/89/17 34/66/17 59/91/17
f 59/91/17 34/66/17 61/93/17
f 61/93/17 34/66/17 63/95/17
f 63/95/17 34/66/17 65/97/17
f 65/97/17 34/66/17 33/65/17
f 38/70/18 37/69/18 36/68/18
f 40/72/18 37/69/18 38/70/18
f 42/74/18 37/69/18 40/72/18
f 44/76/18 37/69/18 42/74/18
f 46/78/18 37/69/18 44/76/18
f 48/80/18 37/69/18 46/78/18
f 50/82/18 37/69/18 48/80/18
f 52/84/18 37/69/18 50/82/18
f 54/86/18 37/69/18 52/84/18
f 56/88/18 37/69/18 54/86/18
f 58/90/18 37/69/18 56/88/18
f 60/92/18 37/69/18 58/90/18
f 62/94/18 37/69/18 60/92/18
f 64/96/18 37/69/18 62/94/18
f 66/98/18 37/69/18 64/96/18
f 36/68/18 37/69/18 66/98/18
f 4/4/2 2/2/1 1/1/1
f 1/1/1 3/3/2 4/4/2
f 6/8/3 4/6/2 3/5/2
f 3/5/2 5/7/3 6/8/3
f 8/12/4 6/10/3 5/9/3
f 5/9/3 7/11/4 8/12/4
f 10/16/5 8/14/4 7/13/4
f 7/13/4 9/15/5 10/16/5
f 12/20/6 10/18/5 9/17/5
f 9/17/5 11/19/6 12/20/6
f 14/24/7 12/22/6 11/21/6
f 11/21/6 13/23/7 14/24/7
f 16/28/8 14/26/7 13/25/7
f 13/25/7 15/27/8 16/28/8
f 18/32/9 16/30/8 15/29/8
f 15/29/8 17/31/9 18/32/9
f 20/36/10 18/34/9 17/33/9
f 17/33/9 19/35/10 20/36/10
f 22/40/11 20/38/10 19/37/10
f 19/37/10 21/39/11 22/40/11
f 24/44/12 22/42/11 21/41/11
f 21/41/11 23/43/12 24/44/12
f 26/48/13 24/46/12 23/45/12
f 23/45/12 25/47/13 26/48/13
f 28/52/14 26/50/13 25/49/13
f 25/49/13 27/51/14 28/52/14
f 30/56/15 28/54/14 27/53/14
f 27/53/14 29/55/15 30/56/15
f 32/60/16 30/58/15 29/57/15
f 29/57/15 31/59/16 32/60/16
f 2/64/1 32/62/16 31/61/16
f 31/61/16 1/63/1 2/64/1
f 68/102/19 32/100/19 2/99/19
f 2/99/19 67/101/19 68/102/19
f 67/106/20 2/104/20 4/103/20
f 4/103/20 69/105/20 67/106/20
f 70/110/21 30/108/21 32/107/21
f 32/107/21 68/109/21 70/110/21
f 71/114/22 28/112/22 30/111/22
f 30/111/22 70/113/22 71/114/22
f 72/118/23 26/116/23 28/115/23
f 28/115/23 71/117/23 72/118/23
f 73/122/24 24/120/24 26/119/24
f 26/119/24 72/121/24 73/122/24
f 74/126/25 22/124/25 24/123/25
f 24/123/25 73/125/25 74/126/25
f 75/130/26 20/128/26 22/127/26
f 22/127/26 74/129/26 75/130/26
f 76/134/27 18/132/27 20/131/27
f 20/131/27 75/133/27 76/134/27
f 77/138/28 16/136/28 18/135/28
f 18/135/28 76/137/28 77/138/28
f 78/142/29 14/140/29 16/139/29
f 16/139/29 77/141/29 78/142/29
f 79/146/30 12/144/30 14/143/30
f 14/143/30 78/145/30 79/146/30
f 80/150/31 10/148/31 12/147/31
f 12/147/31 79/149/31 80/150/31
f 81/154/32 8/152/32 10/151/32
f 10/151/32 80/153/32 81/154/32
f 82/158/33 6/156/33 8/155/33
f 8/155/33 81/157/33 82/158/33
f 69/162/34 4/160/34 6/159/34
f 6/159/34 82/161/34 69/162/34
f 84/166/35 5/164/35 3/163/35
f 3/163/35 83/165/35 84/166/35
f 83/170/36 3/168/36 1/167/36
f 1/167/36 85/169/36 83/170/36
f 86/174/37 7/172/37 5/171/37
f 5/171/37 84/173/37 86/174/37
f 87/178/38 9/176/38 7/175/38
f 7/175/38 86/177/38 87/178/38
f 88/182/39 11/180/39 9/179/39
f 9/179/39 87/181/39 88/182/39
f 89/186/40 13/184/40 11/183/40
f 11/183/40 88/185/40 89/186/40
f 90/190/41 15/188/41 13/187/41
f 13/187/41 89/189/41 90/190/41
f 91/194/42 17/192/42 15/191/42
f 15/191/42 90/193/42 91/194/42
f 92/198/43 19/196/43 17/195/43
f 17/195/43 91/197/43 92/198/43
f 93/202/44 21/200/44 19/199/44
f 19/199/44 92/201/44 93/202/44
f 94/206/45 23/204/45 21/203/45
f 21/203/45 93/205/45 94/206/45
f 95/210/46 25/208/46 23/207/46
f 23/207/46 94/209/46 95/210/46
f 96/214/47 27/212/47 25/211/47
f 25/211/47 95/213/47 96/214/47
f 97/218/48 29/216/48 27/215/48
f 27/215/48 96/217/48 97/218/48
f 98/222/49 31/220/49 29/219/49
f 29/219/49 97/221/49 98/222/49
f 85/226/50 1/224/50 31/223/50
f 31/223/50 98/225/50 85/226/50
f 66/230/51 68/228/51 67/227/51
f 67/227/51 36/229/51 66/230/51
f 36/234/52 67/232/52 69/231/52
f 69/231/52 38/233/52 36/234/52
f 64/238/53 70/236/53 68/235/53
f 68/235/53 66/237/53 64/238/53
f 62/242/54 71/240/54 70/239/54
f 70/239/54 64/241/54 62/242/54
f 60/246/55 72/244/55 71/243/55
f 71/243/55 62/245/55 60/246/55
f 58/250/56 73/248/56 72/247/56
f 72/247/56 60/249/56 58/250/56
f 56/254/57 74/252/57 73/251/57
f 73/251/57 58/253/57 56/254/57
f 54/258/58 75/256/58 74/255/58
f 74/255/58 56/257/58 54/258/58
f 52/262/59 76/260/59 75/259/59
f 75/259/59 54/261/59 52/262/59
f 50/266/60 77/264/60 76/263/60
f 76/263/60 52/265/60 50/266/60
f 48/270/61 78/268/61 77/267/61
f 77/267/61 50/269/61 48/270/61
f 46/274/62 79/272/62 78/271/62
f 78/271/62 48/273/62 46/274/62
f 44/278/63 80/276/63 79/275/63
f 79/275/63 46/277/63 44/278/63
f 42/282/64 81/280/64 80/279/64
f 80/279/64 44/281/64 42/282/64
f 40/286/65 82/284/65 81/283/65
f 81/283/65 42/285/65 40/286/65
f 38/290/66 69/288/66 82/287/66
f 82/287/66 40/289/66 38/290/66
f 39/294/66 84/292/66 83/291/66
f 83/291/66 35/293/66 39/294/66
f 35/298/52 83/296/52 85/295/52
f 85/295/52 33/297/52 35/298/52
f 41/302/65 86/300/65 84/299/65
f 84/299/65 39/301/65 41/302/65
f 43/306/64 87/304/64 86/303/64
f 86/303/64 41/305/64 43/306/64
f 45/310/63 88/308/63 87/307/63
f 87/307/63 43/309/63 45/310/63
f 47/314/62 89/312/62 88/311/62
f 88/311/62 45/313/62 47/314/62
f 49/318/61 90/316/61 89/315/61
f 89/315/61 47/317/61 49/318/61
f 51/322/60 91/320/60 90/319/60
f 90/319/60 49/321/60 51/322/60
f 53/326/59 92/324/59 91/323/59
f 91/323/59 51/325/59 53/326/59
f 55/330/58 93/328/58 92/327/58
f 92/327/58 53/329/58 55/330/58
f 57/334/57 94/332/57 93/331/57
f 93/331/57 55/333/57 57/334/57
f 59/338/56 95/336/56 94/335/56
f 94/335/56 57/337/56 59/338/56
f 61/342/55 96/340/55 95/339/55
f 95/339/55 59/341/55 61/342/55
f 63/346/54 97/344/54 96/343/54
f 96/343/54 61/345/54 63/346/54
f 65/350/53 98/348/53 97/347/53
f 97/347/53 63/349/53 65/350/53
f 33/354/51 85/352/51 98/351/51
f 98/351/51 65/353/51 33/354/51

